<svg xmlns="http://www.w3.org/2000/svg" viewBox="0 0 512 512">
<defs><linearGradient id="g" x1="0" y1="0" x2="1" y2="1"><stop stop-color="#7ee2b8"/><stop offset="1" stop-color="#1f5a48"/></linearGradient></defs>
<rect width="512" height="512" rx="128" fill="#0c1714"/>
<circle cx="256" cy="275" r="150" fill="url(#g)"/>
<path d="M118 323c72-74 198-95 281-20-19 74-77 124-145 124-64 0-115-38-136-104z" fill="#d9c88b"/>
<path d="M249 95c-9 60 4 118 49 162" fill="none" stroke="#7b4d2f" stroke-width="22" stroke-linecap="round"/>
<path d="M252 107c-61-34-112-5-138 29 60 1 98 15 124 49M261 106c58-43 119-17 145 16-57 7-95 26-121 63M259 113c-7-62 37-102 79-111-14 53-9 92 4 125" fill="#2f9d70"/>
</svg>